<?xml version="1.0" encoding="UTF-8"?>
<svg version="1.1" xmlns="http://www.w3.org/2000/svg" width="1024" height="1024">
<path d="M0 0 C337.92 0 675.84 0 1024 0 C1024 337.92 1024 675.84 1024 1024 C686.08 1024 348.16 1024 0 1024 C0 686.08 0 348.16 0 0 Z " fill="transparent" transform="translate(0,0)"/>
<path d="M0 0 C2.82889586 1.17309777 3.27142662 2.57009195 4.53955078 5.32299805 C5.1834375 6.69875 5.1834375 6.69875 5.84033203 8.10229492 C6.27474609 9.06844727 6.70916016 10.03459961 7.15673828 11.0300293 C7.59888672 11.9768457 8.04103516 12.92366211 8.49658203 13.89916992 C14.15627484 26.15043849 14.15627484 26.15043849 14.03173828 32.8425293 C15.02616943 32.58858398 16.02060059 32.33463867 17.04516602 32.07299805 C24.96732779 30.10161278 32.85981361 28.44754741 40.94189453 27.2800293 C41.77385345 27.15966309 42.60581238 27.03929687 43.46298218 26.9152832 C46.8736783 26.42858629 50.28567409 25.9525504 53.69946289 25.48803711 C56.24048071 25.13913407 58.77858956 24.77307936 61.31689453 24.4050293 C62.07535172 24.30697998 62.8338089 24.20893066 63.61524963 24.10791016 C69.0232826 23.31078591 73.29084024 21.53302856 78.03173828 18.8425293 C78.76376465 18.43574951 79.49579102 18.02896973 80.25 17.60986328 C81.09715576 17.10434937 81.09715576 17.10434937 81.96142578 16.58862305 C92.72058617 10.27717352 102.76807138 4.69323335 115.60595703 7.3815918 C125.61595057 10.10478884 132.12427826 15.65102912 137.40673828 24.4675293 C140.26925384 30.66162808 140.08207317 37.93032687 138.33642578 44.43237305 C134.85970577 52.97809239 129.75253189 57.9583592 121.49658203 61.8972168 C111.67550858 65.66377745 102.08408222 64.42196299 92.57470703 60.4909668 C89.98178905 59.28455953 87.47749723 58.03642707 84.95751953 56.6940918 C84.24426514 56.32670898 83.53101074 55.95932617 82.79614258 55.58081055 C81.42530839 54.86746992 80.0690824 54.12486062 78.73413086 53.34643555 C67.18520962 47.34151023 50.4911715 52.74802351 38.21923828 54.9050293 C35.77305143 55.32818085 33.32651065 55.74919186 30.87971497 56.16880798 C29.37349301 56.4278234 27.86768249 56.68924607 26.36235046 56.9533844 C21.24958538 57.8425293 21.24958538 57.8425293 19.03173828 57.8425293 C19.19254883 58.70338135 19.35335938 59.5642334 19.51904297 60.45117188 C25.26822803 98.48066217 12.60619127 140.58792763 -9.93310547 171.29174805 C-12.23679275 174.17909507 -14.5893829 177.01683498 -16.96826172 179.8425293 C-15.61916528 182.82379516 -14.09617529 185.00055568 -11.85107422 187.3737793 C-11.24392578 188.01959961 -10.63677734 188.66541992 -10.01123047 189.33081055 C-9.37830078 189.99467773 -8.74537109 190.65854492 -8.09326172 191.3425293 C-7.46806641 192.00639648 -6.84287109 192.67026367 -6.19873047 193.35424805 C-3.16792607 196.56446581 -0.11404247 199.74417238 3.03173828 202.8425293 C6.86461323 201.56490431 8.3268954 199.27244373 10.65673828 196.1550293 C11.09550293 195.57342041 11.53426758 194.99181152 11.98632812 194.39257812 C29.26403017 171.19100376 40.48522895 144.96507818 47.28173828 116.9050293 C47.54019531 115.83857178 47.79865234 114.77211426 48.06494141 113.67333984 C50.44448699 103.57534158 51.25529876 93.88986518 51.46142578 83.53198242 C51.68461009 77.12008325 52.21573012 71.75379355 56.87939453 66.93237305 C61.04187625 64.82469174 65.50176712 65.23091598 70.03173828 65.8425293 C73.73569132 67.95907389 75.40107795 69.97348979 77.03173828 73.8425293 C77.29052734 75.89111328 77.29052734 75.89111328 77.29736328 78.08862305 C77.30155273 78.91531494 77.30574219 79.74200684 77.31005859 80.59375 C77.29604004 81.92345825 77.29604004 81.92345825 77.28173828 83.2800293 C77.2749707 84.20581787 77.26820313 85.13160645 77.26123047 86.08544922 C77.03256693 101.82202073 75.30243983 116.70526491 71.03173828 131.8425293 C70.74556641 133.02459961 70.45939453 134.20666992 70.16455078 135.42456055 C63.42417531 162.95273116 50.58361799 187.71096572 33.03173828 209.8425293 C32.09276245 211.04942539 31.15394677 212.25644611 30.21533203 213.46362305 C25.90462534 218.89525187 25.90462534 218.89525187 24.03173828 220.8425293 C23.37173828 220.8425293 22.71173828 220.8425293 22.03173828 220.8425293 C23.42802247 223.63509768 25.0100329 223.84352744 27.87939453 225.0144043 C28.87777344 225.43206055 29.87615234 225.8497168 30.90478516 226.2800293 C33.00220799 227.14314512 35.10113041 228.00262741 37.20166016 228.8581543 C45.41401451 232.30492618 52.48288255 236.15159544 57.90673828 243.4050293 C58.46103516 244.12819336 59.01533203 244.85135742 59.58642578 245.59643555 C63.90517465 252.30800473 63.7396034 259.06464547 63.03173828 266.8425293 C62.11430456 270.15758619 60.82660685 272.91802317 59.03173828 275.8425293 C58.49548828 276.7294043 57.95923828 277.6162793 57.40673828 278.5300293 C49.87130405 285.86716262 41.89476091 288.21898011 31.65551758 288.29785156 C24.82199377 288.15227252 20.23326101 286.38627192 15.03173828 281.8425293 C14.16162109 281.08262695 14.16162109 281.08262695 13.27392578 280.30737305 C5.46178184 272.31857258 0.03173828 255.97821932 0.03173828 244.8425293 C-0.40468994 245.18396973 -0.84111816 245.52541016 -1.29077148 245.87719727 C-38.70795355 275.05820013 -83.48857364 297.08804246 -131.96826172 296.8425293 C-131.57968994 297.71989746 -131.19111816 298.59726562 -130.79077148 299.5012207 C-129.34324201 302.77455933 -127.90480117 306.05182688 -126.46899414 309.33032227 C-125.84774804 310.74546365 -125.22408192 312.15954532 -124.59790039 313.57250977 C-123.69534585 315.61025819 -122.80172492 317.65172988 -121.90966797 319.6940918 C-121.63047012 320.31933746 -121.35127228 320.94458313 -121.06361389 321.58877563 C-119.44026697 325.33322089 -118.47348623 328.79632078 -117.96826172 332.8425293 C-117.86642578 333.54635742 -117.76458984 334.25018555 -117.65966797 334.9753418 C-117.13083057 343.14828338 -120.826495 350.17125134 -126.05419922 356.2800293 C-132.0850631 362.03580114 -138.14037588 364.84161778 -146.46826172 365.2175293 C-154.94633536 364.86366188 -161.79518378 361.59471556 -167.96826172 355.8425293 C-170.28076172 352.9050293 -170.28076172 352.9050293 -171.96826172 349.8425293 C-172.54576172 348.8112793 -173.12326172 347.7800293 -173.71826172 346.7175293 C-177.7404062 336.50575137 -174.07357218 326.36912301 -169.96826172 316.8425293 C-167.04997008 310.13834581 -164.03909444 303.47809787 -160.96826172 296.8425293 C-161.59079834 296.85268066 -162.21333496 296.86283203 -162.85473633 296.87329102 C-168.48611912 296.92554701 -173.94566629 296.67025492 -179.53076172 295.9675293 C-180.22105469 295.88889648 -180.91134766 295.81026367 -181.62255859 295.72924805 C-215.69670949 291.60865305 -248.95885961 276.10948922 -276.78076172 256.4675293 C-277.3738916 256.05067871 -277.96702148 255.63382813 -278.578125 255.2043457 C-282.41899087 252.43245869 -284.61010974 250.47049283 -285.65576172 245.7175293 C-284.59694573 239.74965736 -280.56057046 236.57568094 -275.96826172 232.8425293 C-273.32908351 231.02407114 -272.2521933 230.82494724 -269.00341797 231.02612305 C-265.81492495 231.88377432 -264.0140081 232.91368989 -261.40576172 234.9050293 C-231.49661679 256.74628267 -196.7287585 268.39182951 -159.96826172 270.8425293 C-159.63826172 260.2825293 -159.30826172 249.7225293 -158.96826172 238.8425293 C-162.59826172 238.8425293 -166.22826172 238.8425293 -169.96826172 238.8425293 C-173.62657536 238.2159231 -177.12664396 237.53184256 -180.71826172 236.6550293 C-181.67490723 236.42726807 -182.63155273 236.19950684 -183.6171875 235.96484375 C-203.83720622 231.03640531 -222.73164974 223.10867763 -238.96826172 209.8425293 C-238.14515867 203.90246898 -232.89570279 200.0120729 -228.96826172 195.8425293 C-228.46294922 195.24956055 -227.95763672 194.6565918 -227.43701172 194.0456543 C-226.21826172 192.6550293 -226.21826172 192.6550293 -223.96826172 190.8425293 C-219.50987917 191.14335442 -216.522319 193.18803486 -212.84326172 195.5925293 C-204.02297894 201.16414611 -195.21135832 204.91946727 -185.28076172 208.0300293 C-184.504021 208.28026855 -183.72728027 208.53050781 -182.92700195 208.78833008 C-175.08095297 211.14142882 -167.08426407 211.96657449 -158.96826172 212.8425293 C-158.98158539 212.06880478 -158.99490906 211.29508026 -159.00863647 210.49790955 C-159.12913902 203.18624809 -159.22034888 195.8750718 -159.27913475 188.56267452 C-159.31037439 184.80371995 -159.35270764 181.04558962 -159.42089844 177.28710938 C-159.48636116 173.65603671 -159.52202313 170.02575389 -159.53752518 166.39413643 C-159.54856398 165.01262548 -159.57012129 163.63115507 -159.60264206 162.24998283 C-159.87760395 150.08208175 -159.87760395 150.08208175 -156.05664062 145.50097656 C-152.36712127 141.95684538 -149.39182569 141.38397233 -144.35888672 141.42456055 C-140.22322753 142.14762514 -137.58898848 144.67733021 -134.96826172 147.8425293 C-132.85410454 151.24442934 -132.7248058 153.92619758 -132.74121094 157.89624023 C-132.74143753 159.72768585 -132.74143753 159.72768585 -132.7416687 161.59613037 C-132.75199127 162.90978577 -132.76231384 164.22344116 -132.77294922 165.5769043 C-132.7766813 166.93882031 -132.77952735 168.30073902 -132.78152466 169.66265869 C-132.78914578 173.24000515 -132.80878103 176.81718815 -132.83093262 180.39447021 C-132.85142394 184.047707 -132.86053339 187.7009703 -132.87060547 191.35424805 C-132.8920285 198.51708283 -132.92614589 205.67978312 -132.96826172 212.8425293 C-129.82215168 212.40795503 -126.67833388 211.95848077 -123.53466797 211.5065918 C-122.65669556 211.38550049 -121.77872314 211.26440918 -120.87414551 211.13964844 C-100.49160661 208.17748016 -80.50739857 198.96612498 -63.96826172 186.8425293 C-63.15357422 186.26116211 -62.33888672 185.67979492 -61.49951172 185.08081055 C-57.64955517 182.4791857 -57.64955517 182.4791857 -54.96826172 178.8425293 C-55.51740234 178.63128418 -56.06654297 178.42003906 -56.63232422 178.20239258 C-59.79513776 176.36116438 -61.94966463 173.79859723 -64.34326172 171.0847168 C-68.73297643 166.21784807 -73.23052252 161.5061992 -77.90576172 156.9128418 C-78.48551758 156.34112244 -79.06527344 155.76940308 -79.66259766 155.18035889 C-82.03306137 152.84543571 -84.40713477 150.51436864 -86.79003906 148.19213867 C-88.56463545 146.46003329 -90.3294928 144.71846217 -92.09326172 142.9753418 C-92.62556396 142.46166046 -93.15786621 141.94797913 -93.70629883 141.41873169 C-98.10543524 137.04989455 -101.52233265 132.61719904 -102.53076172 126.3425293 C-101.69873294 121.16546133 -99.24838136 117.65090005 -95.15576172 114.4050293 C-90.28987416 113.15380107 -86.64204777 112.85943624 -82.31713867 115.3996582 C-78.15868012 118.25021065 -74.72605403 121.81749571 -71.19091797 125.3894043 C-70.46134384 126.11943665 -69.73176971 126.84946899 -68.98008728 127.60162354 C-67.44227441 129.14244751 -65.90688264 130.68569121 -64.3737793 132.23120117 C-62.04702758 134.57613632 -59.71244718 136.91304314 -57.37646484 139.2487793 C-55.8766449 140.75351833 -54.37728108 142.25871216 -52.87841797 143.7644043 C-52.1896608 144.45427429 -51.50090363 145.14414429 -50.79127502 145.85491943 C-46.85570655 149.82848418 -43.11417598 153.89990253 -39.51438904 158.18121338 C-37.87358584 160.07261176 -37.87358584 160.07261176 -34.96826172 161.8425293 C-34.68611816 161.25802002 -34.40397461 160.67351074 -34.11328125 160.07128906 C-33.05665007 158.01457562 -31.91044906 156.11737432 -30.64794922 154.18237305 C-12.46600428 125.78735499 -6.4819309 98.25345647 -6.96826172 64.8425293 C-7.98968262 65.13365601 -7.98968262 65.13365601 -9.03173828 65.43066406 C-15.22628232 67.16331761 -21.39799316 68.59882483 -27.71826172 69.7800293 C-37.4953766 71.66976243 -47.0357916 74.05571814 -56.57373047 76.9284668 C-61.85442518 78.35042602 -67.00599972 79.20313426 -72.12841797 76.8503418 C-75.05607659 74.72222855 -76.62510827 72.89237498 -77.75732422 69.4284668 C-78.42707924 65.08162535 -78.27166793 62.49788671 -76.40576172 58.4675293 C-71.66296489 53.35990194 -66.68290538 51.15437592 -59.99169922 49.6237793 C-59.2319429 49.4402037 -58.47218658 49.25662811 -57.68940735 49.06748962 C-55.24342167 48.4802529 -52.79369875 47.91087637 -50.34326172 47.3425293 C-48.66708182 46.9448238 -46.99105651 46.54646622 -45.31518555 46.14746094 C-33.91836117 43.4514626 -22.49245488 40.93650594 -10.96826172 38.8425293 C-13.31433806 32.06643172 -15.93067476 25.53288504 -19.01513672 19.05737305 C-19.96826172 16.8425293 -19.96826172 16.8425293 -19.96826172 14.8425293 C-18.24874198 13.30401164 -16.46638674 11.83521171 -14.65576172 10.4050293 C-10.8035917 7.39017361 -10.8035917 7.39017361 -7.23779297 4.05737305 C-5.96826172 2.8425293 -5.96826172 2.8425293 -3.96826172 2.8425293 C-3.96826172 2.1825293 -3.96826172 1.5225293 -3.96826172 0.8425293 C-1.96826172 -0.1574707 -1.96826172 -0.1574707 0 0 Z " fill="#2F3845" transform="translate(658.96826171875,480.157470703125)"/>
<path d="M0 0 C1.32773588 0.39064792 2.65588051 0.77990852 3.984375 1.16796875 C37.05247743 11.14799875 72.04848102 31.28312112 91 61 C96.428756 72.02594596 98.82923972 82.74256384 96.421875 94.92578125 C94.02004008 101.77101077 89.4314719 107.27478761 84 112 C82.18133389 112.8248035 80.34785779 113.61785483 78.5 114.375 C75.82744995 115.57018854 75.82744995 115.57018854 74 118 C72.6865231 123.84901467 72.98921223 129.96564343 73.27368164 135.91870117 C72.92979116 138.53392541 72.00126803 139.35943897 70 141 C69.40501709 140.62488281 68.81003418 140.24976563 68.19702148 139.86328125 C62.00853314 136.04499296 55.74071623 132.8662684 49.0625 130 C48.06831055 129.57066162 47.07412109 129.14132324 46.04980469 128.69897461 C37.50342379 125.07937103 28.84921464 122.11263318 19.93164062 119.55664062 C18.29695401 119.0855732 16.67079572 118.58506321 15.046875 118.078125 C-37.45302407 102.29594675 -107.11800311 108.40910452 -155.4453125 134.32421875 C-157.42765727 135.40385136 -159.39198082 136.49843643 -161.33349609 137.64990234 C-164.99539278 139.76152238 -165.66640156 140.08339961 -170 139 C-170 132.07 -170 125.14 -170 118 C-171.98 117.34 -173.96 116.68 -176 116 C-178.6328125 114.01171875 -178.6328125 114.01171875 -181.125 111.6875 C-181.95257813 110.92824219 -182.78015625 110.16898437 -183.6328125 109.38671875 C-190.60887431 102.35309867 -194.02543758 94.9112079 -194.3125 85 C-194.09469689 68.77366819 -185.14906038 55.11007765 -174 44 C-171.43300922 41.5300803 -168.76328062 39.24746824 -166 37 C-165.50371094 36.59136719 -165.00742187 36.18273437 -164.49609375 35.76171875 C-156.39392934 29.11526236 -148.13364042 23.18535116 -139 18 C-138.36223633 17.63664551 -137.72447266 17.27329102 -137.06738281 16.89892578 C-95.68098776 -6.46436175 -45.7280515 -14.65513545 0 0 Z " fill="#2F3845" transform="translate(561,223)"/>
<path d="M0 0 C11.6931378 6.84172956 17.35595459 17.39505157 20.8125 30.1875 C21.91218823 34.92604423 22.27968287 39.15216357 22 44 C22.54527344 43.57589844 23.09054687 43.15179688 23.65234375 42.71484375 C31 37 31 37 38.34765625 31.28515625 C38.89292969 30.86105469 39.43820312 30.43695313 40 30 C40.66 30.66 41.32 31.32 42 32 C42.45503906 32.45246094 42.91007813 32.90492188 43.37890625 33.37109375 C44.56361947 34.56151643 45.73651295 35.76373519 46.90234375 36.97265625 C50.7059678 40.87848901 54.32032062 44.19219237 59 47 C54.29303327 53.55613223 46.72449462 60.42516846 39 63 C41.38927614 67.61757269 44.53435434 70.55963484 48.375 73.9375 C52.64907684 77.71878945 56.4418867 81.52903741 60 86 C63.36738999 84.51865383 65.70764556 82.57245571 68.4375 80.125 C76.14385927 73.69259172 84.94369763 68.99829769 93.74243164 64.2265625 C95.56822389 63.23458886 97.37353367 62.20497436 99.171875 61.1640625 C102.74680806 59.69261215 105.58312857 59.67109782 109.4375 59.75 C110.69433594 59.76546875 111.95117188 59.7809375 113.24609375 59.796875 C117 60 117 60 120.17596436 60.50361633 C124.46659376 61.06056678 128.61877247 61.14769475 132.93847656 61.14526367 C134.24022324 61.15030159 134.24022324 61.15030159 135.56826782 61.15544128 C138.42573499 61.16490508 141.28314315 61.16689287 144.140625 61.16796875 C146.14776635 61.17118721 148.15490747 61.17455171 150.16204834 61.17805481 C154.37170961 61.18403663 158.5813504 61.18589595 162.79101562 61.18530273 C168.13281848 61.18520179 173.47448639 61.19878781 178.81625748 61.21607494 C182.96722999 61.22731246 187.11817125 61.22921829 191.26915741 61.22869301 C193.2351299 61.22985807 195.20110361 61.23419483 197.16706085 61.24202538 C207.78583099 61.28032366 218.1686462 61.09132115 228.68109512 59.43606091 C236.8110321 58.31972258 242.25342813 61.51093487 249 66 C250.41539062 66.89525391 250.41539062 66.89525391 251.859375 67.80859375 C253.9455886 69.15944945 255.9856062 70.54516003 258 72 C255.17197426 77.23184763 251.97894074 81.81302625 248.25 86.4375 C247.49009766 87.39172852 247.49009766 87.39172852 246.71484375 88.36523438 C245.48083259 89.91356913 244.24102317 91.45727982 243 93 C239.75933541 91.74268908 236.64710286 90.37100249 233.55078125 88.79296875 C216.97859382 80.50607929 201.10588436 76.30845774 183 73 C183.00888245 73.68158676 183.01776489 74.36317352 183.0269165 75.06541443 C183.11571013 82.18732277 183.17586719 89.30907271 183.21972656 96.43139648 C183.23752053 99.08633686 183.2670388 101.74040532 183.30175781 104.39526367 C183.35051626 108.22065084 183.37302497 112.0454515 183.390625 115.87109375 C183.41127014 117.04957382 183.43191528 118.22805389 183.45318604 119.44224548 C183.45506665 126.416834 182.7458738 131.99882447 179 138 C175.8324673 141.07154686 173.03704326 141.92318198 168.625 142.25 C164.69927335 141.97926023 163.03661534 141.44616236 160 139 C157.21947317 135.17465009 156.63026174 132.5278594 156.65942383 127.83276367 C156.65965042 126.61187546 156.65987701 125.39098724 156.66011047 124.13310242 C156.67559433 122.82460831 156.69107819 121.5161142 156.70703125 120.16796875 C156.71263116 118.80748463 156.7168994 117.44699443 156.71989441 116.08650208 C156.73131224 112.51729433 156.76075235 108.94845671 156.79400635 105.37939453 C156.82477374 101.73279832 156.83841394 98.08614191 156.85351562 94.43945312 C156.88562551 87.29281795 156.93678429 80.14643323 157 73 C153.98756596 73.45659534 150.97605331 73.91826639 147.96484375 74.3828125 C147.12095093 74.51018799 146.27705811 74.63756348 145.40759277 74.76879883 C133.68661481 76.58771782 122.79106279 80.05984593 112 85 C110.88882813 85.50273437 109.77765625 86.00546875 108.6328125 86.5234375 C99.6594164 90.78030469 91.90485579 96.03485816 84 102 C83.20851563 102.59296875 82.41703125 103.1859375 81.6015625 103.796875 C81.07304687 104.19390625 80.54453125 104.5909375 80 105 C81.45120643 108.34350416 83.27306962 110.50249602 85.8671875 113.04663086 C86.66141113 113.83102036 87.45563477 114.61540985 88.27392578 115.42356873 C89.13228027 116.26218948 89.99063477 117.10081024 90.875 117.96484375 C92.68240954 119.75183391 94.48969748 121.53894707 96.296875 123.32617188 C99.15180221 126.13756686 102.00903083 128.94656538 104.86914062 131.75268555 C107.62751111 134.46281781 110.37664967 137.1820561 113.125 139.90234375 C114.41253174 141.15723854 114.41253174 141.15723854 115.72607422 142.43748474 C116.52029785 143.2250264 117.31452148 144.01256805 118.1328125 144.82397461 C118.83293457 145.51140244 119.53305664 146.19883026 120.25439453 146.90708923 C123.49859572 150.79675601 124.55710852 154.86538075 124.4609375 159.93359375 C123.59891919 163.79806565 120.88597483 166.42056654 118 169 C115.65986288 170.17006856 113.98542048 170.33836406 111.375 170.5 C110.55773437 170.5721875 109.74046875 170.644375 108.8984375 170.71875 C101.18620795 168.80628337 94.63819317 159.75998553 89.1953125 154.2578125 C88.39012177 153.44883514 87.58493103 152.63985779 86.75534058 151.80636597 C84.20943464 149.24834123 81.66682351 146.68708093 79.125 144.125 C75.75544933 140.72892738 72.3826477 137.33613271 69.0078125 133.9453125 C68.23390167 133.16310333 67.45999084 132.38089417 66.66262817 131.57498169 C65.94783295 130.85688324 65.23303772 130.13878479 64.49658203 129.39892578 C63.86785187 128.7649588 63.2391217 128.13099182 62.59133911 127.47781372 C61.05065447 125.90826697 61.05065447 125.90826697 59 125 C58.73574219 125.5671875 58.47148437 126.134375 58.19921875 126.71875 C56.91724492 129.15742334 55.43422796 131.27337123 53.8125 133.5 C40.07781362 153.09254434 32.19574105 175.09761045 31.3984375 199.046875 C31.35807373 200.10438965 31.31770996 201.1619043 31.27612305 202.25146484 C31.17836019 204.83415537 31.08644403 207.41691009 31 210 C31.74058151 209.99111755 32.48116302 209.98223511 33.2441864 209.9730835 C40.23270806 209.89284535 47.22116063 209.83198876 54.21002483 209.79275131 C57.80289593 209.7719003 61.39538555 209.74362951 64.98803711 209.69824219 C68.45696052 209.65469359 71.92551765 209.63084419 75.39469337 209.62049103 C77.35844133 209.6095328 79.32204247 209.57832075 81.28556824 209.54681396 C82.4864357 209.54651184 83.68730316 209.54620972 84.92456055 209.54589844 C85.97935104 209.53701599 87.03414154 209.52813354 88.12089539 209.51898193 C91.75093853 210.12546088 93.40580003 211.43392709 96 214 C96.33 214.99 96.66 215.98 97 217 C95.84960919 218.15039081 94.69888266 219.30044707 93.546875 220.44921875 C92.48959702 221.50916662 91.43774005 222.57454233 90.390625 223.64453125 C86.60837236 227.48750813 82.68778158 231.0989371 78.6015625 234.6171875 C77.71147181 235.38570483 76.83152881 236.16847119 76 237 C74.61839885 237.0927833 73.23211962 237.11747043 71.84741211 237.11352539 C70.96657455 237.11344986 70.085737 237.11337433 69.1782074 237.11329651 C68.22092239 237.10813522 67.26363739 237.10297394 66.27734375 237.09765625 C65.30213272 237.0962413 64.32692169 237.09482635 63.32215881 237.09336853 C60.19390857 237.08775133 57.06572877 237.07519593 53.9375 237.0625 C51.82226666 237.05748722 49.70703219 237.05292393 47.59179688 237.04882812 C42.39450704 237.03777631 37.19725855 237.02102146 32 237 C32.77212338 239.66614677 33.54731634 242.33133929 34.32421875 244.99609375 C34.64658508 246.11099182 34.64658508 246.11099182 34.97546387 247.24841309 C37.02862162 254.27498739 39.44493978 261.13939149 42 268 C37.14651657 271.99221811 32.25776999 275.93283736 27.125 279.5625 C26.42632812 280.05878906 25.72765625 280.55507813 25.0078125 281.06640625 C23 282 23 282 20.9609375 282.10546875 C17.73186861 280.28509725 16.83014448 277.04467714 15.5 273.75 C15.19666748 273.01982666 14.89333496 272.28965332 14.58081055 271.53735352 C6.60649107 251.99931106 3.61282818 232.36697317 3.6875 211.375 C3.68995728 210.6466394 3.69241455 209.91827881 3.69494629 209.16784668 C3.77313126 196.23225248 3.77313126 196.23225248 5 191 C4.1440625 190.91363281 3.288125 190.82726562 2.40625 190.73828125 C-5.09641373 189.9204909 -12.55354631 188.93900105 -20.0078125 187.75390625 C-21.06515594 187.58599327 -21.06515594 187.58599327 -22.14385986 187.41468811 C-25.71918986 186.84454616 -29.29286506 186.26539768 -32.86523438 185.67700195 C-34.21482922 185.45905713 -35.56443804 185.24119882 -36.9140625 185.0234375 C-38.1098291 184.82669434 -39.3055957 184.62995117 -40.53759766 184.42724609 C-46.45495885 183.69706826 -50.97348474 183.58523959 -56.43359375 186.1171875 C-57.41263672 186.55933594 -58.39167969 187.00148438 -59.40039062 187.45703125 C-60.90375977 188.15892578 -60.90375977 188.15892578 -62.4375 188.875 C-73.33837862 193.89967872 -84.31338359 198.63907815 -96.5234375 195.3125 C-105.15541041 191.77722099 -110.11101042 186.75076592 -114.0546875 178.3671875 C-117.2362349 170.40017212 -116.42105153 163.53570653 -113.328125 155.68359375 C-109.58624871 148.12280254 -103.88315441 143.0123687 -95.91015625 140.28515625 C-83.59373969 136.97336058 -72.34678005 141.36004388 -61.6875 147.5 C-58.73684672 149.27119706 -55.9122239 151.06442502 -53.13671875 153.1015625 C-49.53308507 155.2825911 -46.21008137 156.14394835 -42.125 156.875 C-40.91118652 157.10654785 -40.91118652 157.10654785 -39.67285156 157.34277344 C-23.20161011 160.36337069 -6.56968903 162.59293309 10 165 C10.13349854 164.38321381 10.26699707 163.76642761 10.40454102 163.13095093 C10.58170654 162.32122833 10.75887207 161.51150574 10.94140625 160.67724609 C11.11615479 159.8748349 11.29090332 159.07242371 11.47094727 158.24569702 C15.80090424 139.86610866 28.25904191 121.47875998 40 107 C38.37157169 103.04254049 35.63840637 100.19859146 32.75 97.125 C32.25781982 96.59342285 31.76563965 96.0618457 31.25854492 95.51416016 C28.6717715 92.73338939 26.04074231 90.01818919 23.3125 87.375 C21 85 21 85 21 83 C16.43922533 86.29015295 13.24716826 90.12872321 9.875 94.5625 C9.31022949 95.30411377 8.74545898 96.04572754 8.16357422 96.80981445 C-0.48641677 108.42437342 -7.42715987 121.12626064 -13.3671875 134.3125 C-15.25337662 137.41704094 -16.70382025 138.52893642 -20 140 C-24.71042976 140.90931775 -28.19917333 140.42225406 -32.4375 138.1875 C-34.95236502 136.04066401 -36.66339257 134.35470695 -37.4765625 131.08203125 C-38.03357437 122.56561288 -34.01640217 116.08791881 -30.02539062 108.86425781 C-29.1515513 107.27553469 -28.3140176 105.66693112 -27.484375 104.0546875 C-20.231685 90.09117514 -11.15157619 78.07656559 0 67 C-0.67576603 63.86303229 -0.67576603 63.86303229 -3.18969727 62.74487305 C-4.13901123 62.33793213 -5.0883252 61.93099121 -6.06640625 61.51171875 C-7.10990234 61.05216797 -8.15339844 60.59261719 -9.22851562 60.11914062 C-10.32873047 59.64669922 -11.42894531 59.17425781 -12.5625 58.6875 C-31.69569703 50.47114211 -31.69569703 50.47114211 -36.375 41.9375 C-37.06722656 40.71353516 -37.06722656 40.71353516 -37.7734375 39.46484375 C-41.52062786 31.93466185 -42.54008904 24.09456905 -40.0625 15.875 C-36.34520782 7.49355819 -29.37751904 1.32211962 -21 -2 C-13.84012487 -4.38662504 -6.79436264 -2.87786698 0 0 Z " fill="#303845" transform="translate(343,348)"/>
<path d="M0 0 C0.52722656 0.50917969 1.05445313 1.01835937 1.59765625 1.54296875 C2.41556641 2.29513672 2.41556641 2.29513672 3.25 3.0625 C7.9430886 8.6136048 7.11918517 14.81855258 6.66015625 21.73046875 C5.87089777 27.56493243 4.77784266 33.32641047 3.66015625 39.10546875 C3.01119107 42.54060191 2.37024946 45.97720822 1.73046875 49.4140625 C1.56233673 50.31195999 1.39420471 51.20985748 1.22097778 52.13496399 C-0.09422746 59.22509049 -1.27089228 66.33282599 -2.41015625 73.453125 C-2.75631318 75.59003847 -3.10266625 77.72692018 -3.44921875 79.86376953 C-3.95679912 82.9961604 -4.45881708 86.12888242 -4.94238281 89.26507568 C-5.39471846 92.19256793 -5.86911317 95.11575673 -6.34765625 98.0390625 C-6.47463898 98.90209488 -6.6016217 99.76512726 -6.73245239 100.65431213 C-7.69914955 106.39311582 -9.43554149 111.30094538 -13.33984375 115.73046875 C-17.82687596 118.39392461 -22.24045996 118.54155184 -27.33984375 117.73046875 C-30.46161608 116.04758948 -32.7312141 113.94772805 -34.33984375 110.73046875 C-35.22559053 100.14240452 -33.28841097 89.96219984 -31.40234375 79.60546875 C-31.1207853 78.00407465 -30.84018056 76.40251257 -30.56054688 74.80078125 C-28.53202854 63.30702313 -28.53202854 63.30702313 -27.33984375 59.73046875 C-30.06534593 61.95645719 -32.78955967 64.18398603 -35.51171875 66.4140625 C-37.08245129 67.70058791 -38.65428211 68.9857875 -40.23046875 70.265625 C-42.45450432 72.08582253 -44.55685655 73.94748155 -46.58984375 75.98046875 C-53.41598588 82.80661088 -60.81574275 89.0232705 -68.15917969 95.28076172 C-71.66523055 98.2743604 -75.11882698 101.31291293 -78.52734375 104.41796875 C-84.50250474 109.83570883 -90.75631065 114.89733361 -97.08203125 119.8984375 C-97.95085938 120.58550781 -98.8196875 121.27257812 -99.71484375 121.98046875 C-100.87113281 122.88539063 -100.87113281 122.88539063 -102.05078125 123.80859375 C-104.41197453 125.73344782 -104.41197453 125.73344782 -106.68359375 128.08203125 C-109.80217948 131.19144467 -113.10180638 134.0163572 -116.46484375 136.85546875 C-117.69760292 137.89857267 -118.92940726 138.9428063 -120.16015625 139.98828125 C-120.69914551 140.44348145 -121.23813477 140.89868164 -121.79345703 141.36767578 C-123.39139823 142.73332966 -123.39139823 142.73332966 -124.91357422 144.40185547 C-126.33984375 145.73046875 -126.33984375 145.73046875 -128.33984375 145.73046875 C-128.66984375 146.72046875 -128.99984375 147.71046875 -129.33984375 148.73046875 C-130.88987379 150.12636822 -132.50618614 151.44933894 -134.15234375 152.73046875 C-138.36975621 156.09130456 -142.3988569 159.55114022 -146.33984375 163.23046875 C-161.95699415 177.73046875 -161.95699415 177.73046875 -165.33984375 177.73046875 C-165.66984375 178.72046875 -165.99984375 179.71046875 -166.33984375 180.73046875 C-170.79698661 184.73046875 -170.79698661 184.73046875 -173.33984375 184.73046875 C-173.33984375 185.39046875 -173.33984375 186.05046875 -173.33984375 186.73046875 C-174.94921875 188.3515625 -174.94921875 188.3515625 -177.08984375 190.16796875 C-177.7859375 190.76480469 -178.48203125 191.36164063 -179.19921875 191.9765625 C-185.00131368 196.73046875 -185.00131368 196.73046875 -187.33984375 196.73046875 C-187.6028125 197.32859375 -187.86578125 197.92671875 -188.13671875 198.54296875 C-189.40968532 200.85745343 -190.57286955 202.04673377 -192.58984375 203.73046875 C-193.30527344 204.33632813 -194.02070312 204.9421875 -194.7578125 205.56640625 C-195.60988281 206.28054688 -196.46195313 206.9946875 -197.33984375 207.73046875 C-199.531368 209.60077836 -201.71627424 211.4787888 -203.90234375 213.35546875 C-205.11715811 214.39586765 -206.33200254 215.43623144 -207.546875 216.4765625 C-219.67207808 226.86056085 -219.67207808 226.86056085 -231.58984375 237.48046875 C-234.8613421 240.45014847 -238.20953947 243.2738643 -241.65234375 246.04296875 C-246.46489665 249.93238033 -250.98582895 254.05790125 -255.4987793 258.28393555 C-259.73479233 262.22837314 -264.14619183 265.89527576 -268.66015625 269.51953125 C-271.4723769 271.83981825 -274.15781638 274.26118009 -276.83984375 276.73046875 C-280.39654619 280.00465298 -284.01146186 283.13689308 -287.77734375 286.16796875 C-291.77208629 289.38990192 -295.58536484 292.73704486 -299.33984375 296.23046875 C-303.97232755 300.54043313 -308.76106608 304.58108043 -313.69140625 308.55078125 C-317.17470829 311.41756966 -320.48747319 314.45326788 -323.8203125 317.4921875 C-326.37189292 319.75894033 -328.99155907 321.90586962 -331.65234375 324.04296875 C-335.89754373 327.47270659 -339.92205465 331.06516502 -343.90234375 334.79296875 C-358.81469506 348.73046875 -358.81469506 348.73046875 -362.33984375 348.73046875 C-362.66984375 349.72046875 -362.99984375 350.71046875 -363.33984375 351.73046875 C-364.84888252 353.08420839 -366.42397073 354.36490276 -368.02734375 355.60546875 C-372.66384464 359.29783133 -377.03153216 363.16157349 -381.33984375 367.23046875 C-386.29500103 371.89711321 -391.37494907 376.29449735 -396.69140625 380.55078125 C-399.5181021 382.87717695 -402.21043277 385.31218805 -404.90234375 387.79296875 C-409.06632214 391.62619141 -413.36308887 395.1784195 -417.8125 398.671875 C-420.56216951 400.91155944 -423.16831086 403.26617819 -425.77734375 405.66796875 C-430.18404472 409.72287427 -434.7188257 413.54591193 -439.37890625 417.3046875 C-442.81321868 420.11828647 -446.16963441 423.01388313 -449.52734375 425.91796875 C-463.23689045 437.73046875 -463.23689045 437.73046875 -466.33984375 437.73046875 C-466.66984375 438.72046875 -466.99984375 439.71046875 -467.33984375 440.73046875 C-469.32945149 442.2908853 -471.28572841 443.67329626 -473.40234375 445.04296875 C-474.0586377 445.47319336 -474.71493164 445.90341797 -475.39111328 446.34667969 C-489.72682473 455.60835096 -504.72255947 463.86356001 -519.58984375 472.23046875 C-520.58806152 472.7934668 -521.5862793 473.35646484 -522.61474609 473.93652344 C-525.51166838 475.55671309 -528.42003648 477.1519114 -531.33984375 478.73046875 C-532.39816406 479.30337646 -533.45648437 479.87628418 -534.546875 480.46655273 C-536.12275391 481.29135132 -536.12275391 481.29135132 -537.73046875 482.1328125 C-538.67438477 482.63031006 -539.61830078 483.12780762 -540.59082031 483.64038086 C-547.054412 486.20343032 -553.49625781 483.98509166 -559.96240234 482.29882812 C-565.89864871 480.80028525 -571.85087693 479.63362026 -577.87890625 478.57421875 C-580.0273578 478.18757807 -582.17579487 477.80085693 -584.32421875 477.4140625 C-587.65233848 476.81989582 -590.98078634 476.22764098 -594.30957031 475.63720703 C-597.56275315 475.05864009 -600.81460482 474.47299255 -604.06640625 473.88671875 C-605.54024277 473.62876526 -605.54024277 473.62876526 -607.04385376 473.36560059 C-625.99430557 469.93838043 -625.99430557 469.93838043 -631.65234375 461.85546875 C-633.08348014 457.43195626 -632.74239479 453.77710145 -631.08984375 449.48046875 C-629.29750535 446.66393698 -628.1685284 445.43255658 -625.33984375 443.73046875 C-612.38824978 441.30204488 -598.51487546 446.04436908 -586.00830078 448.90917969 C-580.15913475 450.21868285 -574.28291064 451.3841486 -568.40234375 452.54296875 C-566.8402417 452.8527063 -566.8402417 452.8527063 -565.24658203 453.16870117 C-563.41725832 453.53112585 -561.58777677 453.89275586 -559.75805664 454.25317383 C-558.07951259 454.58447657 -556.40242757 454.92322408 -554.7265625 455.26782227 C-546.66849004 456.82981565 -541.83058804 454.40395193 -534.90234375 450.60546875 C-533.90460938 450.07066895 -532.906875 449.53586914 -531.87890625 448.98486328 C-510.75427858 437.56213624 -489.94817109 425.88207869 -471.83349609 410.02246094 C-469.56523438 408.06044051 -467.23408061 406.17878221 -464.90234375 404.29296875 C-456.28854914 397.27153501 -447.83649436 390.06164635 -439.65234375 382.54296875 C-435.26628729 378.51653039 -430.72242747 374.74937153 -426.08984375 371.01171875 C-423.25884797 368.66327907 -420.54600777 366.22136973 -417.83984375 363.73046875 C-413.36999255 359.61667966 -408.74939482 355.75959578 -404.0234375 351.9453125 C-401.39275818 349.77414048 -398.86041951 347.52805518 -396.33984375 345.23046875 C-392.94385693 342.13491679 -389.47812844 339.17895668 -385.90234375 336.29296875 C-381.12699973 332.431052 -376.6031669 328.35372651 -372.0859375 324.1953125 C-369.42109209 321.80339578 -366.6915255 319.53791991 -363.90234375 317.29296875 C-359.36587645 313.63411106 -355.08118275 309.78177912 -350.81835938 305.81445312 C-347.60703147 302.84345685 -344.31365586 300.03093043 -340.90234375 297.29296875 C-336.71746822 293.92700411 -332.75671944 290.39869046 -328.83984375 286.73046875 C-324.05667976 282.25131048 -319.13169427 278.04595453 -314.01953125 273.94140625 C-311.2073106 271.62111925 -308.52187112 269.19975741 -305.83984375 266.73046875 C-302.28314131 263.45628452 -298.66822564 260.32404442 -294.90234375 257.29296875 C-290.90757941 254.071018 -287.09452708 250.72368892 -283.33984375 247.23046875 C-278.81076006 243.0209572 -274.13716635 239.05674188 -269.32421875 235.17578125 C-260.50618376 227.95053269 -251.97793339 220.36053349 -243.53125 212.70703125 C-240.84515881 210.28428233 -238.11994052 207.90894971 -235.390625 205.53515625 C-233.07895578 203.50088734 -230.80452945 201.42824565 -228.52734375 199.35546875 C-225.10755047 196.26410074 -221.62025851 193.30587843 -218.02734375 190.41796875 C-213.8058572 187.00624549 -209.79911033 183.43728909 -205.83984375 179.73046875 C-201.13519477 175.32954546 -196.30652167 171.17723436 -191.28515625 167.13671875 C-183.17142571 160.5079946 -175.30507286 153.56745777 -167.58984375 146.48046875 C-163.22763957 142.4796306 -158.70566976 138.73697021 -154.1015625 135.01953125 C-150.24499303 131.82299701 -146.56764751 128.44600121 -142.87890625 125.05859375 C-138.37943155 120.93292156 -133.7663952 116.94441402 -129.12109375 112.984375 C-127.923036 111.96240495 -126.72512365 110.94026444 -125.52734375 109.91796875 C-124.92132324 109.40081299 -124.31530273 108.88365723 -123.69091797 108.35083008 C-119.94952113 105.14570345 -116.27885897 101.87853146 -112.65234375 98.54296875 C-109.19968679 95.37216133 -105.68453409 92.35011844 -102.02734375 89.41796875 C-96.97440002 85.34533936 -92.26188547 80.98457247 -87.54296875 76.53686523 C-83.98034855 73.19788754 -80.34299925 70.03299315 -76.52734375 66.98046875 C-72.20941221 63.523591 -68.32519302 59.82320664 -64.46875 55.86328125 C-61.80855414 53.19820429 -58.99306131 50.75542942 -56.13671875 48.3046875 C-53.75385728 46.21709364 -51.54457976 44.00410276 -49.33984375 41.73046875 C-54.85206013 42.31424179 -59.98351579 43.29556329 -65.3125 44.796875 C-66.80399017 45.20394568 -68.29552807 45.6108415 -69.78710938 46.01757812 C-72.10056502 46.65535751 -74.41317676 47.2959876 -76.72485352 47.94018555 C-78.98121265 48.56672621 -81.24035238 49.1823177 -83.5 49.796875 C-84.18248306 49.99060196 -84.86496613 50.18432892 -85.56813049 50.38392639 C-90.89444121 51.82433499 -95.90927478 52.78003262 -101.08984375 50.54296875 C-104.43009197 47.85221324 -106.00123761 45.7248589 -106.73046875 41.4296875 C-107.04882631 36.66155945 -106.84898489 34.03803742 -103.78833008 30.26318359 C-100.43242822 26.47208136 -97.23518468 24.99699655 -92.47265625 23.51171875 C-91.31502274 23.12095909 -91.31502274 23.12095909 -90.13400269 22.7223053 C-87.58455951 21.86880484 -85.02573923 21.04890446 -82.46484375 20.23046875 C-80.66491648 19.63930205 -78.86544584 19.04674347 -77.06640625 18.45288086 C-72.20375847 16.85590658 -67.33100996 15.29191448 -62.45617676 13.73260498 C-59.2532539 12.70262358 -56.05531708 11.65832408 -52.85839844 10.60986328 C-47.41872359 8.82615911 -41.97286548 7.06283382 -36.52142334 5.31542969 C-34.4112971 4.6373006 -32.30274796 3.95424305 -30.19586182 3.26611328 C-27.22832787 2.30036418 -24.25426841 1.35821379 -21.27734375 0.421875 C-19.96719803 -0.0113633 -19.96719803 -0.0113633 -18.63058472 -0.45335388 C-12.32262527 -2.39819124 -6.0190666 -3.26577069 0 0 Z " fill="#2F3846" transform="translate(821.33984375,264.26953125)"/>
<path d="M0 0 C8.86863181 7.72589494 17.843643 16.8150228 19.4140625 28.9296875 C18.83478161 33.72944342 17.03332843 36.85483147 13.9765625 40.5546875 C8.46218815 44.72409249 2.68437338 45.09749322 -4.0234375 44.5546875 C-7.40670689 43.8714415 -10.66726852 42.89268316 -13.9609375 41.8671875 C-15.82278983 41.31337548 -17.6847712 40.75999715 -19.546875 40.20703125 C-20.93084473 39.7891333 -20.93084473 39.7891333 -22.34277344 39.36279297 C-32.5065271 36.2988563 -42.68230361 33.498113 -53.0859375 31.3671875 C-54.19884155 31.13491455 -54.19884155 31.13491455 -55.33422852 30.89794922 C-69.44614567 28.1288979 -83.42746991 27.22427625 -97.77929688 27.29394531 C-100.38956059 27.30465109 -102.99913209 27.29398289 -105.609375 27.28125 C-121.92796034 27.26581921 -137.85449571 28.73589374 -153.8359375 32.1171875 C-155.0437085 32.36678223 -156.25147949 32.61637695 -157.49584961 32.87353516 C-168.12483007 35.16529576 -178.46311072 38.22353969 -188.7746582 41.65844727 C-197.01392204 44.3126571 -206.69199119 47.06300168 -214.9609375 43.0546875 C-219.32129954 39.49520828 -222.21786313 35.94176155 -223.5390625 30.38671875 C-224.19648284 21.94484392 -218.8168182 15.521719 -213.6484375 9.3671875 C-202.69873201 -2.56059626 -189.07513803 -11.59372192 -175.0234375 -19.4453125 C-174.39985352 -19.79480957 -173.77626953 -20.14430664 -173.13378906 -20.50439453 C-115.46138833 -52.30045372 -49.90213355 -40.36012351 0 0 Z " fill="transparent" transform="translate(615.0234375,279.4453125)"/>
<path d="M0 0 C1.49506828 -0.00855011 1.49506828 -0.00855011 3.02033997 -0.01727295 C5.12381958 -0.02666591 7.22731353 -0.03323404 9.33081055 -0.03710938 C12.46626386 -0.04671187 15.60103092 -0.07774776 18.73632812 -0.109375 C54.39368096 -0.29494604 90.9550397 6.70699316 122.33203125 24.203125 C122.99203125 24.533125 123.65203125 24.863125 124.33203125 25.203125 C124.33203125 26.193125 124.33203125 27.183125 124.33203125 28.203125 C92.94603859 44.05857471 51.06966001 40.70075415 16.91674805 40.59423828 C11.37830175 40.57713709 5.84028764 40.58731712 0.30185604 40.60455799 C-77.56592201 40.81040065 -77.56592201 40.81040065 -97.66796875 28.203125 C-97.66796875 27.213125 -97.66796875 26.223125 -97.66796875 25.203125 C-67.66101343 9.268397 -34.0704759 0.15633672 0 0 Z " fill="#2E3744" transform="translate(499.66796875,350.796875)"/>
<path d="M0 0 C2.15722577 0.92121364 3.35096784 1.84541248 4.98754883 3.51391602 C5.79542847 4.32856323 5.79542847 4.32856323 6.61962891 5.15966797 C7.17803467 5.73934326 7.73644043 6.31901855 8.31176758 6.91625977 C8.88628662 7.50173584 9.46080566 8.08721191 10.05273438 8.69042969 C14.19435645 12.93973276 18.20628155 17.28838386 21.99926758 21.85375977 C15.78858282 36.16670839 -6.83999154 45.88630871 -20.00073242 52.85375977 C-20.99717773 53.38614258 -21.99362305 53.91852539 -23.02026367 54.46704102 C-37.3606326 61.58923228 -53.40311785 66.22584866 -69.06323242 69.35375977 C-69.83344727 69.51376465 -70.60366211 69.67376953 -71.3972168 69.83862305 C-79.45471417 71.29824106 -86.4767289 70.85375977 -95.00073242 70.85375977 C-95.00073242 60.29375977 -95.00073242 49.73375977 -95.00073242 38.85375977 C-91.72135742 38.46188477 -88.44198242 38.07000977 -85.06323242 37.66625977 C-58.14798247 34.12022876 -21.76061251 22.76244876 -3.54663086 1.12646484 C-2.00073242 -0.14624023 -2.00073242 -0.14624023 0 0 Z " fill="transparent" transform="translate(621.000732421875,680.146240234375)"/>
<path d="M0 0 C3.39488422 2.05107588 4.80323081 3.70484621 7 7 C7.34716797 9.43823242 7.34716797 9.43823242 7.4921875 12.35546875 C7.55470703 13.43997314 7.61722656 14.52447754 7.68164062 15.6418457 C7.74544922 16.81191162 7.80925781 17.98197754 7.875 19.1875 C9.76187935 47.18425804 15.16161834 75.16914492 28.83886719 100.04272461 C30.37832681 102.94313872 31.12718138 104.4509872 30.37109375 107.71484375 C26.27567799 114.54053669 20.69515912 120.56270639 12.9375 122.9375 C8.62884668 121.56239788 7.57731092 118.95184938 5.4921875 115.0625 C-7.3580216 88.68929598 -16.91254053 58.489342 -18 29 C-18.03254883 28.20561523 -18.06509766 27.41123047 -18.09863281 26.59277344 C-18.19696198 23.916035 -18.25947758 21.24049538 -18.3125 18.5625 C-18.35733521 17.28282349 -18.35733521 17.28282349 -18.40307617 15.97729492 C-18.4536087 10.4725099 -17.72627806 7.32665911 -14 3 C-9.8275351 -0.97097766 -5.49207609 -0.81891572 0 0 Z " fill="#2F3845" transform="translate(307,546)"/>
<path d="M0 0 C7.11633654 5.29327505 9.92643769 14.03538189 13 22 C13.37769531 22.89460938 13.75539063 23.78921875 14.14453125 24.7109375 C15.3739657 28.00065708 15.36687476 30.51468976 15 34 C12.55786631 38.98195274 9.25911394 42.17163617 4 44 C0.90108995 44.51299524 -1.9402773 44.76917244 -5 44 C-8.43319388 41.26991409 -9.87973295 38.48553824 -11.4375 34.4375 C-13.43547674 29.3556896 -15.65238169 24.45951501 -18.08203125 19.5703125 C-19.21942634 16.38560626 -19.52701387 14.35808012 -19 11 C-16.6640625 8.26171875 -16.6640625 8.26171875 -13.625 5.6875 C-12.62726562 4.82511719 -11.62953125 3.96273438 -10.6015625 3.07421875 C-6.87492201 0.10297836 -4.79241985 -0.81380714 0 0 Z " fill="#323945" transform="translate(706,443)"/>
<path d="M0 0 C0.33 0.99 0.66 1.98 1 3 C0.360625 3.268125 -0.27875 3.53625 -0.9375 3.8125 C-3.33131686 4.88667752 -3.33131686 4.88667752 -4 8 C-5.5625 9.6875 -5.5625 9.6875 -7 11 C-7.99 10.67 -8.98 10.34 -10 10 C-7.02911382 6.00073014 -3.87051275 3.07881696 0 0 Z " fill="#383F47" transform="translate(628,433)"/>
<path d="M0 0 C0.33 0 0.66 0 1 0 C1.33 3.63 1.66 7.26 2 11 C1.01 11.495 1.01 11.495 0 12 C-1.1671568 8.49852959 -1.13357453 5.67329964 -1 2 C-0.67 1.34 -0.34 0.68 0 0 Z " fill="#484E56" transform="translate(558,601)"/>
<path d="M0 0 C0.33 0.66 0.66 1.32 1 2 C0.34 1.67 -0.32 1.34 -1 1 C-0.67 0.67 -0.34 0.34 0 0 Z M-4 1 C-3.01 1.66 -2.02 2.32 -1 3 C-3.31 4.65 -5.62 6.3 -8 8 C-7.04065919 4.16263678 -6.76390737 3.40339772 -4 1 Z " fill="#3F4855" transform="translate(595,464)"/>
<path d="M0 0 C-0.33 0.66 -0.66 1.32 -1 2 C-4.63 1.67 -8.26 1.34 -12 1 C-12 0.67 -12 0.34 -12 0 C-7.6835078 -0.76173392 -4.25566547 -1.16063604 0 0 Z " fill="#485056" transform="translate(539,693)"/>
<path d="M0 0 C1.32 0.66 2.64 1.32 4 2 C2.71937515 3.7074998 1.38232443 5.37373596 0 7 C-0.66 7 -1.32 7 -2 7 C-1.34 4.69 -0.68 2.38 0 0 Z " fill="#3F4350" transform="translate(308,466)"/>
<path d="M0 0 C2.64 0 5.28 0 8 0 C7.67 0.99 7.34 1.98 7 3 C4.36 2.67 1.72 2.34 -1 2 C-0.67 1.34 -0.34 0.68 0 0 Z " fill="#3E444D" transform="translate(203,733)"/>
<path d="M0 0 C1.65 0 3.3 0 5 0 C5 0.66 5 1.32 5 2 C5.66 2.33 6.32 2.66 7 3 C4.69 3.33 2.38 3.66 0 4 C0 2.68 0 1.36 0 0 Z " fill="#EEF3F3" transform="translate(701,504)"/>
<path d="M0 0 C0.33 0.99 0.66 1.98 1 3 C-0.8125 4.5625 -0.8125 4.5625 -3 6 C-3.99 5.67 -4.98 5.34 -6 5 C-4.02 3.35 -2.04 1.7 0 0 Z " fill="#373D4B" transform="translate(646,418)"/>
<path d="M0 0 C0.66 0.33 1.32 0.66 2 1 C0.02 2.98 -1.96 4.96 -4 7 C-4.99 6.67 -5.98 6.34 -7 6 C-4.69 4.02 -2.38 2.04 0 0 Z " fill="#DCE0E3" transform="translate(714,392)"/>
<path d="M0 0 C0.33 0.99 0.66 1.98 1 3 C-0.65 4.32 -2.3 5.64 -4 7 C-4.66 6.67 -5.32 6.34 -6 6 C-4.02 4.02 -2.04 2.04 0 0 Z " fill="#3B424A" transform="translate(770,308)"/>
</svg>
